
<svg version="1.1" xmlns="http://www.w3.org/2000/svg" x="0" y="0" viewBox="0 0 175.9 63.9" xml:space="preserve" width="176" height="64"><path fill="#00A651" d="M57 30.8l-6.1-15.9H12.8L6.7 30.8h15.6l-8.7 22.7h36.5l-8.7-22.7zM131 14.9l-7 15.5-5.5-15.5h-15.9L87.1 53.5h16.8l6.9-16.2 7.5 16.2h14.1l6.8-16.4 7.3 16.4h16.4l-15.4-38.6zM83.1 14.9l-6.3 14.9-5.7-14.9H54l14.9 38.6h15.2l15.8-38.6zM3.3 62.4l-1.5-4.2H0l2.4 5.6H4l2.4-5.6H5zM15.3 61.4h2.9v-1h-2.9v-1.2h3.5v-1h-5.1v5.6h5.2v-1h-3.6zM45.2 59v-.8h-5.4v1h3.3l-3.5 3.7v.9h5.7v-1h-3.6zM52.8 63.8H58v-1h-3.5v-1.4h2.8v-1h-2.8v-1.2H58v-1h-5.2zM71.3 58.2h-1.6l-2.5 2.7v-2.7h-1.5v5.6h1.5v-1.5l1.1-1.1 1.7 2.6h1.8l-2.4-3.6zM78.9 63.8h5.2v-1h-3.5v-1.4h2.8v-1h-2.8v-1.2h3.5v-1h-5.2zM105.3 58.2h1.7v5.6h-1.7zM119.6 61.8l-2.7-3.6h-1.8v5.6h1.4v-4l3 4h1.5v-5.6h-1.4zM130.9 59.1c.6 0 1.1.4 1.3 1l1.6-.2c-.3-1.1-1.4-1.8-2.9-1.8-2 0-3.3 1.1-3.3 2.9 0 1.8 1.3 2.9 3.1 2.9.9 0 1.6-.3 2-.7l.3.7h.8v-3h-3.1v.9h1.5v.2c0 .5-.6.9-1.3.9-1 0-1.5-.7-1.5-1.9 0-1.3.5-1.9 1.5-1.9zM141.6 63.8h5.2v-1h-3.5v-1.4h2.8v-1h-2.8v-1.2h3.5v-1h-5.2zM159 61.8l-2.8-3.6h-1.7v5.6h1.4l-.1-4 3.1 4h1.4v-5.6h-1.4zM160.4 2.7l4.6 6.1 4.6-6.1zM160.4 4.8v4l1.5-4zM160.7 19l1.9-6.9h-1.9zM164.6 12.1h-1.9l1.9 6.9z"/><path fill="#00A651" d="M162.6 8.8h-2.2l2.3 3.3 2.2-3.3z"/><circle fill="#00A651" cx="162.6" cy="7.7" r="1.1"/><path fill="#00A651" d="M168.1 4.8l1.5 4v-4zM169.3 19v-6.9h-1.9zM165.4 19l1.9-6.9h-1.9z"/><path fill="#00A651" d="M167.4 8.8h-2.3l2.2 3.3 2.4-3.3h-.1z"/><circle fill="#00A651" cx="167.4" cy="7.7" r="1.1"/><path fill="#00A651" d="M165 0c-6 0-10.9 4.9-10.9 10.9S159 21.8 165 21.8s10.9-4.9 10.9-10.9S171 0 165 0zm0 21.1c-5.6 0-10.2-4.6-10.2-10.2S159.4.7 165 .7s10.2 4.6 10.2 10.2-4.6 10.2-10.2 10.2zM97.6 59.8c0-1.1-.9-1.6-2.7-1.6h-3.2v5.6h1.7v-2.2h1.3l1.2 2.2h1.8l-1.4-2.5c.9-.3 1.3-.8 1.3-1.5zm-2.9.8h-1.2v-1.4h1.2c.8 0 1.2.2 1.2.7 0 .4-.4.7-1.2.7zM32.4 59.8c0-1.1-.9-1.6-2.7-1.6h-3.2v5.6h1.7v-2.2h1.3l1.2 2.2h1.8l-1.4-2.5c.9-.3 1.3-.8 1.3-1.5zm-3 .8h-1.2v-1.4h1.2c.8 0 1.2.2 1.2.7 0 .4-.4.7-1.2.7z"/></svg>
